Coordinates
version=1
nRows=26
nColumns=24
inDegrees=yes

Units are S.I. units (second, meters, Newtons, ...)
Angles are in degrees.

endheader
time	pelvis_tilt	pelvis_list	pelvis_rotation	pelvis_tx	pelvis_ty	pelvis_tz	hip_flexion_r	hip_adduction_r	hip_rotation_r	knee_angle_r	ankle_angle_r	subtalar_angle_r	mtp_angle_r	hip_flexion_l	hip_adduction_l	hip_rotation_l	knee_angle_l	ankle_angle_l	subtalar_angle_l	mtp_angle_l	lumbar_extension	lumbar_bending	lumbar_rotation
      1.14600000	     -0.70077768	      2.73421653	     -2.07115989	      0.10352439	      1.05806632	      0.31010219	     22.87615965	     -2.45523257	     -1.69531413	    -71.10828975	     -0.22273404	    -14.22285366	      1.28311748	     14.16573920	      5.64711500	     -3.15868678	    -16.28581305	      7.42821426	      1.64138072	     -0.81818135	      5.66441835	     -0.54649495	     -0.47552022
      1.15016667	     -0.71236458	      2.72187756	     -2.07273754	      0.10858249	      1.05867856	      0.31007487	     23.47664037	     -2.35607941	     -1.50192978	    -70.86451273	      0.32036949	    -14.67498685	      1.21592931	     13.83504667	      5.66301304	     -3.12545329	    -16.22694474	      7.63001198	      1.64303674	     -0.81599181	      5.63459457	     -0.53770765	     -0.52010062
      1.15433333	     -0.71902064	      2.70249050	     -2.07650822	      0.11365305	      1.05929837	      0.31004172	     24.04776203	     -2.24862619	     -1.31095079	    -70.53313456	      0.82782264	    -15.06548034	      1.15109290	     13.48868623	      5.67113170	     -3.08797377	    -16.14719601	      7.82013442	      1.64458503	     -0.81499392	      5.61032074	     -0.51467879	     -0.56525417
      1.15850000	     -0.73358027	      2.68925572	     -2.07740647	      0.11872322	      1.05990286	      0.31001846	     24.60511467	     -2.14802164	     -1.12627032	    -70.12062635	      1.30588553	    -15.39450799	      1.08677540	     13.14433772	      5.68604501	     -3.04616124	    -16.05089922	      7.99911260	      1.64138768	     -0.81527693	      5.58657829	     -0.50453008	     -0.60743764
      1.16266667	     -0.75331456	      2.66962906	     -2.07865772	      0.12381696	      1.06048672	      0.31000085	     25.14190795	     -2.03965511	     -0.94804319	    -69.62674708	      1.76364716	    -15.66520312	      1.01931612	     12.79919990	      5.69198833	     -3.01298249	    -15.94525086	      8.17457462	      1.63293468	     -0.81691540	      5.57414031	     -0.48675047	     -0.64967602
      1.16683333	     -0.77236376	      2.65326299	     -2.07917318	      0.12889161	      1.06105947	      0.30996293	     25.65736042	     -1.93858975	     -0.77439472	    -69.05552270	      2.18593519	    -15.86973588	      0.95442611	     12.44795874	      5.70439046	     -2.96319864	    -15.82006956	      8.33583152	      1.62456282	     -0.81954697	      5.56101496	     -0.46840944	     -0.69096204
      1.17100000	     -0.79373081	      2.63724551	     -2.07775304	      0.13400001	      1.06162528	      0.30995351	     26.14374666	     -1.83660839	     -0.60733284	    -68.40013902	      2.57844573	    -16.01505671	      0.89280943	     12.09157986	      5.71509212	     -2.90992265	    -15.68601615	      8.48816773	      1.60591826	     -0.82306314	      5.55498560	     -0.45182390	     -0.73019149
      1.17516667	     -0.81862579	      2.62112731	     -2.06692660	      0.13909344	      1.06215825	      0.30995189	     26.60991693	     -1.73693545	     -0.45026845	    -67.67226380	      2.96608138	    -16.09998907	      0.81927474	     11.73838192	      5.72394094	     -2.85933737	    -15.55023324	      8.64089969	      1.58029694	     -0.82882274	      5.53471868	     -0.44129063	     -0.77393560
      1.17933333	     -0.87038222	      2.60117604	     -2.05177620	      0.14414353	      1.06262220	      0.30997369	     27.08338660	     -1.63005621	     -0.29615423	    -66.85545346	      3.14232556	    -16.12785727	      0.79780276	     11.41672102	      5.72495868	     -2.78959377	    -15.40701752	      8.70205366	      1.57308359	     -0.83051884	      5.46576630	     -0.45804446	     -0.79200056
      1.18350000	     -0.87226833	      2.59290011	     -2.07019477	      0.14934076	      1.06317457	      0.30992000	     27.46465729	     -1.54271924	     -0.13831306	    -65.97062018	      3.55477853	    -16.16622792	      0.74221503	     11.00886965	      5.75030871	     -2.73005106	    -15.21114641	      8.88103307	      1.51775525	     -0.83548674	      5.55418227	     -0.40315622	     -0.83452332
      1.18766667	     -0.94430467	      2.58586468	     -2.05382085	      0.15437943	      1.06354288	      0.30999029	     27.90900511	     -1.44648565	      0.00934104	    -65.01457525	      3.73428174	    -16.16157093	      0.72078222	     10.70803335	      5.76035416	     -2.66326114	    -15.06665438	      8.94810940	      1.49862524	     -0.83771537	      5.47402783	     -0.43312897	     -0.85245247
      1.19183333	     -0.93113303	      2.55792028	     -2.02759910	      0.15956192	      1.06409308	      0.30986716	     28.20519596	     -1.36576096	      0.11025008	    -63.97752673	      4.27249315	    -15.92540830	      0.57114327	     10.28350451	      5.77513491	     -2.55154748	    -14.87628572	      9.19249747	      1.37293988	     -0.85877079	      5.47038793	     -0.33479825	     -0.96323224
      1.19600000	     -0.96853231	      2.55453059	     -2.03135626	      0.16472405	      1.06450521	      0.30991589	     28.54244066	     -1.27670419	      0.25461516	    -62.85681076	      4.41148557	    -15.87683344	      0.52170714	      9.91433155	      5.79543124	     -2.47008325	    -14.67088082	      9.24595147	      1.34407294	     -0.86660445	      5.51995909	     -0.37936989	     -0.98413219
      1.20016667	     -1.02270852	      2.54291497	     -2.02795005	      0.16990716	      1.06486964	      0.30995563	     28.86308730	     -1.18528290	      0.37555167	    -61.66170690	      4.58040407	    -15.81195060	      0.47137993	      9.56353390	      5.80625939	     -2.39745853	    -14.47401456	      9.33887897	      1.28088710	     -0.87475452	      5.56491230	     -0.36677770	     -1.01495746
      1.20433333	     -1.11957033	      2.54805971	     -2.02768113	      0.17498082	      1.06509392	      0.31009010	     29.21954964	     -1.09629821	      0.51529173	    -60.41449915	      4.70810773	    -15.78241211	      0.44895510	      9.27406053	      5.82497776	     -2.32292207	    -14.29845660	      9.39846707	      1.24605949	     -0.87830136	      5.51492356	     -0.40413873	     -1.02955054
      1.20850000	     -1.13261878	      2.51632579	     -2.01232874	      0.18028736	      1.06551885	      0.31005146	     29.41297939	     -1.00612898	      0.58726522	    -59.05027978	      4.85318566	    -15.67596606	      0.39764133	      8.85797699	      5.82717100	     -2.22976044	    -14.06853165	      9.52591723	      1.14102841	     -0.88740688	      5.65715128	     -0.34869532	     -1.06677054
      1.21266667	     -1.18551944	      2.49481028	     -1.98954580	      0.18551813	      1.06582101	      0.31008372	     29.62976999	     -0.91769748	      0.66339348	    -57.62736139	      4.96905493	    -15.57951632	      0.34336412	      8.49519762	      5.83174132	     -2.11501592	    -13.85405559	      9.62320249	      1.04000171	     -0.89794223	      5.69100187	     -0.31868026	     -1.11121484
      1.21683333	     -1.24377909	      2.48065081	     -1.97003092	      0.19075072	      1.06608203	      0.31013637	     29.82283071	     -0.83633266	      0.73540727	    -56.13621275	      5.05806722	    -15.51081888	      0.29196505	      8.13722483	      5.84365583	     -2.00191469	    -13.63723058	      9.70358125	      0.93923162	     -0.90855213	      5.72900554	     -0.31177257	     -1.15210404
      1.22100000	     -1.29918724	      2.45821137	     -1.94745255	      0.19600973	      1.06632160	      0.31018552	     29.97795556	     -0.75128892	      0.78936664	    -54.57293577	      5.11845660	    -15.46044220	      0.23747984	      7.77439098	      5.84640682	     -1.88743052	    -13.42049378	      9.78238785	      0.82770448	     -0.92035874	      5.77432272	     -0.28837739	     -1.19933941
      1.22516667	     -1.36732398	      2.43950788	     -1.92737298	      0.20126455	      1.06650687	      0.31025832	     30.11858979	     -0.66802859	      0.84015371	    -52.94616514	      5.15946596	    -15.43848384	      0.18641017	      7.42580755	      5.85070191	     -1.77312942	    -13.20679681	      9.85456674	      0.71716567	     -0.93177739	      5.82990071	     -0.27993835	     -1.24158250
      1.22933333	     -1.36159435	      2.38676766	     -1.85861967	      0.20654675	      1.06681721	      0.31016230	     30.12747210	     -0.59322254	      0.80497367	    -51.22389364	      5.08617496	    -15.47529097	      0.05144916	      6.98385738	      5.84036698	     -1.53009786	    -12.96363855	      9.92388720	      0.49976357	     -0.96409026	      5.72254472	     -0.10001534	     -1.39648020
      1.23350000	     -1.44851841	      2.38913704	     -1.85728474	      0.21183197	      1.06688895	      0.31033644	     30.23410354	     -0.51775375	      0.85604496	    -49.49062767	      5.15347795	    -15.49653154	      0.00653585	      6.65624619	      5.85633579	     -1.47634084	    -12.74503040	      9.97432957	      0.41665780	     -0.97503526	      5.82794802	     -0.23884145	     -1.40539758
      1.23766667	     -1.49974508	      2.34686340	     -1.81123779	      0.21724036	      1.06705160	      0.31034849	     30.23999517	     -0.43659460	      0.83035468	    -47.65545094	      5.06089241	    -15.58608561	     -0.10104694	      6.26719089	      5.84388282	     -1.28847545	    -12.50383531	     10.04156513	      0.25064019	     -1.00227656	      5.85601604	     -0.07516010	     -1.51361022
      1.24183333	     -1.59921070	      2.35524819	     -1.79593092	      0.22254322	      1.06703358	      0.31055017	     30.29855003	     -0.37296344	      0.85942462	    -45.81535821	      5.11531730	    -15.61742505	     -0.14060874	      5.96004699	      5.86278388	     -1.23680616	    -12.30856407	     10.09749578	      0.16196338	     -1.01267799	      5.97924558	     -0.23293297	     -1.51212974
      1.24600000	     -1.68632013	      2.33758310	     -1.77602489	      0.22801155	      1.06704647	      0.31068118	     30.29338472	     -0.29786665	      0.84533094	    -43.90296560	      5.11072730	    -15.65894311	     -0.18465556	      5.61300528	      5.86290983	     -1.14379000	    -12.07439463	     10.16741475	      0.05459648	     -1.02460988	      6.12799515	     -0.24148727	     -1.53523666
      1.25016667	     -1.70765783	      2.27579563	     -1.68665500	      0.23349697	      1.06718204	      0.31061391	     30.16367431	     -0.23034888	      0.73353302	    -41.90347790	      4.93363916	    -15.81301118	     -0.29262958	      5.18779184	      5.83435622	     -0.88452241	    -11.83599346	     10.23356020	     -0.12210181	     -1.05597236	      6.09450770	      0.00163716	     -1.67542720
